<?xml version="1.0" standalone="no"?>
<!DOCTYPE svg PUBLIC "-//W3C//DTD SVG 20010904//EN"
 "http://www.w3.org/TR/2001/REC-SVG-20010904/DTD/svg10.dtd">
<svg version="1.0" xmlns="http://www.w3.org/2000/svg"
 width="32.000000pt" height="32.000000pt" viewBox="0 0 32.000000 32.000000"
 preserveAspectRatio="xMidYMid meet">

<g transform="translate(0.000000,32.000000) scale(0.100000,-0.100000)"
fill="#000000" stroke="none">
<path d="M133 300 c-6 -21 -8 -22 -58 -24 -26 -1 -30 -5 -31 -31 -2 -50 -3
-52 -25 -58 -28 -8 -19 -31 14 -35 22 -3 29 3 41 31 29 71 97 88 147 38 50
-50 33 -118 -38 -147 -28 -12 -34 -19 -31 -41 4 -33 27 -42 35 -14 6 22 8 23
58 25 26 1 30 5 31 31 2 50 3 52 24 58 12 3 20 14 20 27 0 13 -8 24 -20 27
-21 6 -22 8 -24 58 -1 26 -5 30 -31 31 -50 2 -52 3 -58 24 -3 12 -14 20 -27
20 -13 0 -24 -8 -27 -20z"/>
<path d="M139 166 c-38 -41 -57 -55 -71 -50 -13 4 -18 0 -18 -12 0 -10 -12
-31 -27 -46 -25 -27 -26 -29 -10 -45 16 -16 18 -15 45 10 15 15 36 27 46 27
12 0 16 5 12 18 -5 14 9 33 50 71 30 28 54 57 52 63 -9 26 -30 17 -79 -36z
m59 26 c-1 -4 -25 -28 -53 -52 l-50 -45 45 52 c40 46 68 68 58 45z"/>
</g>
</svg>
